<svg width="100" height="100" viewBox="0 0 100 100" fill="none" xmlns="http://www.w3.org/2000/svg">
<path d="M50 50C60.3553 50 68.75 41.6053 68.75 31.25C68.75 20.8947 60.3553 12.5 50 12.5C39.6447 12.5 31.25 20.8947 31.25 31.25C31.25 41.6053 39.6447 50 50 50ZM62.5 31.25C62.5 38.1536 56.9036 43.75 50 43.75C43.0964 43.75 37.5 38.1536 37.5 31.25C37.5 24.3464 43.0964 18.75 50 18.75C56.9036 18.75 62.5 24.3464 62.5 31.25Z" fill="white"/>
<path d="M87.5 81.25C87.5 87.5 81.25 87.5 81.25 87.5H18.75C18.75 87.5 12.5 87.5 12.5 81.25C12.5 75 18.75 56.25 50 56.25C81.25 56.25 87.5 75 87.5 81.25ZM81.2499 81.2282C81.241 79.6858 80.2889 75.0653 76.0493 70.8257C71.9727 66.7491 64.3069 62.5 49.9999 62.5C35.693 62.5 28.0272 66.7491 23.9506 70.8257C19.711 75.0653 18.7589 79.6858 18.75 81.2282H81.2499Z" fill="white"/>
</svg>
