<svg width="13" height="13" viewBox="0 0 13 13" fill="none" xmlns="http://www.w3.org/2000/svg">
<path d="M11.9489 2.97001C11.7866 2.72085 11.4329 2.68781 11.2227 2.89808C11.0671 3.05363 11.0391 3.29695 11.1594 3.48122C11.7975 4.46006 12.1394 5.64811 12.0437 6.92204C11.8438 9.58704 9.71427 11.7736 7.05422 12.0325C3.55437 12.3733 0.626642 9.44549 0.967621 5.94589C1.22041 3.34983 3.31153 1.24629 5.90532 0.972205C7.24439 0.830657 8.49596 1.17437 9.51911 1.84117C9.70338 1.96125 9.94669 1.9332 10.1022 1.77761C10.3125 1.56734 10.2795 1.21368 10.0304 1.0513C8.75459 0.219943 7.17405 -0.179345 5.49126 0.0772851C2.72293 0.499667 0.501998 2.71154 0.0782505 5.47967C-0.591968 9.85818 3.14121 13.5916 7.51998 12.9219C10.2883 12.4986 12.5004 10.2777 12.9228 7.50932C13.1797 5.82654 12.7801 4.24574 11.9489 2.97001Z" fill="black"/>
<path d="M6.40572 7.46708V7.46691V3.9467C6.40572 3.68712 6.1952 3.47638 5.93541 3.47638C5.67562 3.47638 5.46509 3.68691 5.46509 3.9467V7.93719C5.46509 8.19676 5.67562 8.40751 5.93541 8.40751H9.9259C10.1857 8.40751 10.396 8.19698 10.396 7.93719C10.396 7.67761 10.1855 7.46708 9.9259 7.46708H6.40572Z" fill="black"/>
</svg>
