<svg width="8" height="9" viewBox="0 0 8 9" fill="none" xmlns="http://www.w3.org/2000/svg">
<path d="M0.0915293 1.48391C-0.0305098 1.36189 -0.0305098 1.16407 0.0915293 1.04206C0.213568 0.920043 0.411433 0.920043 0.533471 1.04206L3.75 4.25792L6.96653 1.04206C7.08857 0.920043 7.28643 0.920043 7.40847 1.04206C7.53051 1.16407 7.53051 1.36189 7.40847 1.48391L4.19194 4.69977L7.40847 7.91563C7.53051 8.03764 7.53051 8.23546 7.40847 8.35748C7.28643 8.47949 7.08857 8.47949 6.96653 8.35748L3.75 5.14162L0.533471 8.35748C0.411432 8.47949 0.213568 8.47949 0.0915295 8.35748C-0.0305093 8.23546 -0.0305093 8.03764 0.0915295 7.91563L3.30806 4.69977L0.0915293 1.48391Z" fill="#D54215"/>
</svg>
