<svg width="8" height="9" viewBox="0 0 8 9" fill="none" xmlns="http://www.w3.org/2000/svg">
<path d="M0.0915293 1.48537C-0.0305097 1.36336 -0.0305097 1.16553 0.0915293 1.04352C0.213568 0.921508 0.411433 0.921508 0.533471 1.04352L3.75 4.25938L6.96653 1.04352C7.08857 0.921508 7.28643 0.921508 7.40847 1.04352C7.53051 1.16553 7.53051 1.36336 7.40847 1.48537L4.19194 4.70123L7.40847 7.91709C7.53051 8.03911 7.53051 8.23693 7.40847 8.35894C7.28643 8.48096 7.08857 8.48096 6.96653 8.35894L3.75 5.14308L0.533471 8.35894C0.411432 8.48096 0.213568 8.48096 0.0915295 8.35894C-0.0305093 8.23693 -0.0305093 8.03911 0.0915295 7.91709L3.30806 4.70123L0.0915293 1.48537Z" fill="white"/>
</svg>
