<?xml version="1.0" encoding="iso-8859-1"?>
<?xml-stylesheet type="text/css" href="../styles/main.scss" ?>
<svg width="24" height="24" viewBox="0 0 24 24" fill="none" xmlns="http://www.w3.org/2000/svg">
<path d="M17.2891 1.43169C15.4939 1.43169 13.8026 2.13394 12.5316 3.4049L12.0074 3.92911L11.4733 3.39501C10.2023 2.12404 8.51102 1.4218 6.71585 1.4218C4.92561 1.4218 3.23923 2.1191 1.96827 3.39007C0.697301 4.66103 0 6.34741 0 8.14259C0 9.93777 0.702246 11.6241 1.97321 12.8951L11.3942 22.3161L11.414 22.3359C11.5772 22.4991 11.7948 22.5782 12.0074 22.5782C12.225 22.5782 12.4426 22.4941 12.6058 22.3309L22.0268 12.91C23.2978 11.639 24 9.9526 24 8.15743C24 6.36225 23.3027 4.67092 22.0317 3.4049C20.7657 2.12899 19.0793 1.43169 17.2891 1.43169ZM20.83 11.7082L12.0124 20.5308L3.17494 11.6934C2.22543 10.7439 1.70122 9.48279 1.69627 8.13764C1.69627 6.79744 2.21554 5.53637 3.16505 4.58685C4.11457 3.64228 5.37564 3.11807 6.7109 3.11807C8.05605 3.11807 9.31712 3.64228 10.2716 4.59674L11.4041 5.72924C11.7206 6.04574 12.2844 6.04574 12.6058 5.72924L13.7334 4.60169C14.6829 3.65217 15.9489 3.12796 17.2891 3.12796C18.6293 3.12796 19.8904 3.65217 20.8399 4.60169C21.7894 5.5512 22.3136 6.81228 22.3087 8.15743C22.3087 9.49763 21.7845 10.7587 20.83 11.7082Z" fill="black"/>
</svg>
