<svg width="12" height="11" viewBox="0 0 12 11" fill="none" xmlns="http://www.w3.org/2000/svg">
<path d="M2.67109 11C2.80932 11 2.96219 10.9665 3.12383 10.8957L5.95528 9.39918L8.78674 10.8957C8.94833 10.9665 9.10124 11 9.23938 11C9.66785 11 9.95708 10.6781 9.93693 10.1455L9.56712 7.10582L11.6805 4.99901C12.1202 4.43763 11.9075 3.8353 11.2053 3.6536L8.06218 3.16357L6.67447 0.45396C6.471 0.15191 6.19678 0 5.91988 0C5.6555 0 5.38925 0.138366 5.18017 0.416635L3.57153 3.16339L0.69878 3.63159C0.0001256 3.82534 -0.209816 4.4374 0.229829 4.99882L2.34315 7.10545L1.97335 10.1451C1.9532 10.6781 2.24252 11 2.67109 11ZM0.99453 4.48543L3.72353 4.04059L4.15334 3.97055L4.3688 3.6026L5.91283 0.966097L7.24093 3.55903L7.45092 3.96901L7.91675 4.04148L10.8954 4.50595L8.91025 6.48464L8.60553 6.78874L8.65656 7.2097L8.99505 9.99262L6.39387 8.61743L5.95523 8.3857L5.5165 8.61743L2.91552 9.99262L3.25376 7.2097L3.3049 6.78874L3.00022 6.48464L0.99453 4.48543Z" fill="#D23535"/>
</svg>
